<svg width="100" height="20" viewBox="0 0 100 20" fill="none" xmlns="http://www.w3.org/2000/svg">
<g clip-path="url(#clip0_309_2)">
<path d="M7.86701 20H0.00360107V0H7.09666C9.57268 0 11.8174 2.26456 11.8174 5.01977C11.8092 5.92199 11.5776 6.80622 11.1457 7.58447C13.0554 8.9486 14.1642 11.0766 14.1642 13.2872C14.1608 16.9446 11.3226 19.8634 7.86701 20ZM5.48622 3.87492V7.12437H6.64601C7.15618 7.12437 7.49629 6.43961 7.49629 5.50683C7.49629 4.63516 7.21229 3.87132 6.64601 3.87132L5.48622 3.87492ZM6.84667 15.771C7.80069 15.771 8.62547 14.4878 8.62547 12.8235C8.62547 11.1592 7.72246 9.90475 6.74294 9.90475H5.47942V15.771H6.84667Z" fill="white"/>
<path d="M94.3525 10.3414V19.9999H88.8324V10.5391L83.0811 0.00708008H89.4531L92.4189 5.43663L95.3864 0.00708008H99.9966L94.3525 10.3414Z" fill="white"/>
<path d="M18.0464 5.63794L17.4002 4.04555H17.0345V5.63794H15.504V0.0664062H17.4716C17.8571 0.0693859 18.2324 0.19819 18.546 0.435201C18.8596 0.672211 19.0963 1.00585 19.2236 1.39046C19.3509 1.77507 19.3627 2.19186 19.2573 2.58381C19.1519 2.97576 18.9345 3.32371 18.6348 3.58006L19.5616 5.62895L18.0464 5.63794ZM17.3661 2.88452C17.6314 2.88452 17.8627 2.52507 17.8627 2.06497C17.8627 1.60487 17.611 1.2526 17.3372 1.2526H17.026V2.88452H17.3661Z" fill="white"/>
<path d="M20.2877 5.63794L22.4049 0.0664062H22.7995L24.932 5.63794H23.3895L23.1311 4.97834H21.6516L21.3999 5.63794H20.2877ZM22.7433 3.95389L22.4032 3.0283L22.0512 3.95389H22.7433Z" fill="white"/>
<path d="M77.777 16.6499V18.7168C77.5136 19.0869 77.1733 19.3883 76.7824 19.5977C76.3914 19.8071 75.9603 19.9189 75.5221 19.9245C75.0913 19.9246 74.6667 19.8158 74.2837 19.6073C73.9007 19.3988 73.5704 19.0966 73.3203 18.7259C73.0702 18.3552 72.9075 17.9267 72.8459 17.476C72.7842 17.0254 72.8253 16.5657 72.9657 16.1353C73.1061 15.7049 73.3419 15.3162 73.6532 15.0015C73.9646 14.6868 74.3426 14.4553 74.7558 14.3263C75.1689 14.1973 75.6053 14.1745 76.0284 14.2598C76.4516 14.3451 76.8494 14.536 77.1886 14.8167L76.7074 15.9472C76.4548 15.6944 76.1274 15.5414 75.7805 15.514C75.034 15.514 74.466 16.2437 74.466 17.0938C74.466 17.8757 74.9762 18.5964 75.7805 18.5964C75.9525 18.5905 76.1217 18.5486 76.2782 18.473C76.4346 18.3974 76.5753 18.2896 76.6921 18.156V17.678H75.3316L75.3962 16.6535L77.777 16.6499Z" fill="white"/>
<path d="M80.8176 18.7205H82.7869L82.7138 19.9246H78.51L80.7649 15.4315H78.9725L79.0457 14.2273H83.0811L80.8176 18.7205Z" fill="white"/>
<path d="M83.0811 8.49561H15.4973V11.3533H83.0811V8.49561Z" fill="white"/>
</g>
<defs>
<clipPath id="clip0_309_2">
<rect width="100" height="20" fill="white"/>
</clipPath>
</defs>
</svg>
